<svg width="512" height="512" viewBox="0 0 512 512" fill="none" xmlns="http://www.w3.org/2000/svg">
    <circle cx="256" cy="256" r="256" fill="#0F172A"/>
    <circle cx="256" cy="256" r="216" stroke="white" stroke-width="16"/>
    <path d="M258.379 128.2C295.339 128.2 321.739 134.92 337.579 148.36C353.419 161.8 361.339 182.2 361.339 209.56C361.339 225.64 357.379 240.04 349.459 252.76C341.539 265.24 329.539 275.08 313.459 282.28C297.379 289.48 277.699 293.08 254.419 293.08H239.299V324.76C239.299 334.36 240.379 341.56 242.539 346.36C244.699 351.16 248.419 354.52 253.699 356.44C259.219 358.12 267.499 358.96 278.539 358.96C278.539 363.28 277.819 367.48 276.379 371.56C274.939 375.64 273.019 379.12 270.619 382H165.859C163.219 379.12 161.179 375.64 159.739 371.56C158.299 367.48 157.579 363.28 157.579 358.96C165.739 358.96 171.499 357.64 174.859 355C178.459 352.12 180.259 347.44 180.259 340.96V171.76C180.259 165.04 178.459 160.36 174.859 157.72C171.499 154.84 165.739 153.4 157.579 153.4C157.579 145.24 160.219 137.68 165.499 130.72C181.579 130.72 203.419 130.12 231.019 128.92C244.939 128.44 254.059 128.2 258.379 128.2ZM298.699 208.48C298.699 193.12 295.099 180.64 287.899 171.04C280.939 161.44 269.179 156.64 252.619 156.64C247.339 156.64 242.899 157.12 239.299 158.08V263.56C241.459 264.04 244.579 264.28 248.659 264.28C268.579 264.28 281.899 259 288.619 248.44C295.339 237.88 298.699 224.56 298.699 208.48Z" fill="white"/>
</svg>
